PathFileType	4	(X/Y/Z)	C:\Users\°ÂÌØÂü\Desktop\20210112\bx_y_5_502-Unnamed.trc
DataRate	CameraRate	NumFrames	NumMarkers	Units	OrigDataRate	OrigDataStartFrame	OrigNumFrames
50.00	50.00	       4	0	mm	50.00	168	       447
Frame#	Time	
		

168	3.340	-745.01855	295.78052	1540.18250	-699.19525	-42.67975	710.27448	-710.78381	279.29422	749.73230	-649.91742	115.60720	1431.24963	-663.39935	289.60666	878.71552	-607.52271	222.86674	826.02002	-707.09265	149.27670	576.35321	-740.89746	257.23538	638.39960	-675.26245	174.58939	158.66840	-725.20703	-61.23476	1542.93103	-744.98004	251.23203	576.23413	-786.09772	258.84125	502.14380	-690.32764	210.16748	535.68420	-717.88947	77.67812	217.07402	-712.72400	154.47237	218.03867	-772.64496	224.14438	203.93564	-882.60010	295.98544	144.47417	-674.90674	54.28166	158.54802				-595.72803	225.62976	174.19817	-667.56573	301.13565	158.06638	-630.09100	309.00369	160.49467	-562.04944	263.76212	165.38498	-528.04254	304.25919	146.36279	-761.24487	114.53825	1848.59668				-517.95892	-72.80773	142.28053	-561.22791	-43.21451	162.74365	-603.55310	17.79477	167.77467	-607.70038	4.42308	808.81976	-706.51196	85.66228	575.96039	-794.36090	55.84925	174.18034	-796.91766	173.33490	182.90805	-778.04810	-29.12856	489.20007	-666.47473	-68.85129	162.06201	-769.14441	-4.67649	206.53760	-876.13330	-78.92915	141.07085	-716.26514	-22.00318	616.26660	-625.15900	-79.66865	159.54321				-821.05621	107.73177	1036.77466	-731.95483	-19.91966	569.72272							-681.66870	22.35781	522.76965	
169	3.360	-744.87097	295.23117	1540.05664	-698.23297	-42.94865	710.41113	-710.29486	278.82068	749.61560	-649.59338	115.03584	1431.19226	-662.46393	289.43652	878.83014	-606.42175	222.56465	825.94885	-705.97791	149.01070	576.51288	-740.04840	256.54260	638.27600	-675.13373	174.54504	158.60118	-725.94366	-61.53212	1542.86328	-744.76886	250.76683	576.05121	-785.80072	258.97150	502.74188	-690.22937	210.29771	535.40369	-717.91998	77.45508	216.78635	-712.62292	154.31543	218.11501	-772.66772	224.15074	204.16542	-882.52582	296.01248	144.52502	-675.06189	54.45539	158.39511				-595.64673	225.72093	174.20557	-667.68256	301.16940	158.25009	-630.09753	308.99820	160.61073	-562.02026	263.59927	165.24544	-528.07770	304.24625	146.45256	-762.09241	114.54609	1848.24841				-518.04230	-72.81749	142.40614	-561.21075	-43.25874	162.56664	-603.61810	17.52492	167.35184	-607.28961	3.97080	808.59656	-706.93848	85.70999	576.57178	-795.04218	56.00113	174.66832	-796.73419	172.93231	183.51840	-777.80865	-29.22081	489.54379	-666.54645	-68.84067	161.91228	-769.07306	-4.77008	206.70842	-875.97748	-78.88188	141.21204	-715.67957	-22.32080	616.53363	-625.09320	-79.70940	159.45587				-820.25732	107.33176	1037.11145	-730.83423	-19.58842	569.44031							-681.45898	22.59514	522.59119	
170	3.380	-744.96295	294.96335	1540.12451	-697.92242	-42.80232	710.14972	-709.93335	278.69180	749.55511	-649.16028	114.66327	1431.47034	-661.79779	289.09393	878.21765	-605.60638	222.74736	826.15790	-705.76013	148.99330	576.68982	-739.56055	257.07492	638.38013	-675.27301	174.63496	158.46114	-726.34296	-61.86562	1542.74756	-743.98041	250.49901	575.93420	-785.54181	258.51019	502.53842	-689.68335	210.26161	535.47943	-717.91998	77.45508	216.78635	-712.56549	154.42906	218.04912	-772.63342	224.11272	204.05325	-882.64563	296.27029	144.67953	-675.06189	54.45539	158.39511				-595.62018	225.78929	174.18250	-667.63403	301.12302	158.11609	-630.04382	308.96591	160.50652	-561.91016	263.67169	165.17191	-528.20660	304.21338	146.40298	-762.79425	114.60101	1848.07141				-517.93347	-73.04156	142.67648	-561.01990	-43.09443	162.46324	-603.53381	17.79131	167.45515	-607.03729	4.50790	808.53320	-706.54907	85.53193	576.61829	-795.04620	56.11053	174.70844	-796.61578	172.95340	183.52052	-777.53815	-29.30942	489.65900	-666.53766	-68.72942	161.73672	-768.84436	-4.29522	206.57175	-875.97589	-78.81084	141.28232	-715.44836	-22.17565	616.43793	-625.00610	-79.64968	159.56995				-819.02264	107.20759	1037.10156	-730.60919	-19.47617	569.27661							-681.17145	22.69934	522.67633	
171	3.400	-745.05084	294.75497	1540.01270	-697.49811	-42.85615	709.75977	-709.06757	278.86563	749.78748	-649.19684	114.38995	1431.39734	-660.71289	288.71323	878.44885	-604.99548	222.36325	825.85345	-704.99139	148.55493	576.69104	-738.97302	256.47778	638.29437	-675.14642	174.47078	158.54276	-726.80823	-61.90711	1542.64880	-743.75159	250.26538	575.90240	-784.91168	258.60800	502.53241	-689.30774	209.85741	535.04865	-717.91998	77.45508	216.78635	-712.61584	154.33328	217.78091	-772.40302	223.89558	204.08078	-882.72186	296.03802	144.44849	-675.05035	54.37374	158.45432				-595.60291	225.75890	174.18172	-667.68286	301.25345	158.15007	-630.05499	308.86407	160.53456	-561.75696	263.47870	164.99062	-528.16968	304.37299	146.26947	-763.23053	114.37754	1848.09290				-518.01898	-72.99927	142.41827	-561.04431	-43.11144	162.57408	-603.56195	17.72466	167.35461	-605.99591	3.67934	808.29449	-704.83496	85.50208	576.26166	-795.00214	56.10381	174.68225	-796.59637	172.86809	183.51463	-777.47235	-29.27430	489.76862	-666.54645	-68.61403	161.80978	-768.70416	-4.31245	206.71230	-875.94739	-78.97127	141.10255	-715.20087	-22.24009	616.18292	-624.90698	-79.75806	159.65251				-818.10126	107.50928	1037.03638	-730.16650	-19.70749	569.37543							-680.80444	22.50430	522.56702	
